<svg xmlns="http://www.w3.org/2000/svg" viewBox="0 0 24 24"><defs><linearGradient id="jk" x1="0" y1="0" x2="1" y2="1"><stop offset="0" stop-color="#3ddc95"></stop><stop offset="1" stop-color="#1f9e6e"></stop></linearGradient></defs><rect width="24" height="24" rx="6" fill="url(#jk)"></rect><path fill="#ffffff" stroke="#ffffff" stroke-width="1.3" stroke-linejoin="round" d="M12 3.7 L20.2 11.2 L3.8 11.2 Z"></path><path fill="#ffffff" fill-rule="evenodd" d="M7.8 10.6 H16.2 A2 2 0 0 1 18.2 12.6 V17.6 A2 2 0 0 1 16.2 19.6 H7.8 A2 2 0 0 1 5.8 17.6 V12.6 A2 2 0 0 1 7.8 10.6 Z M8 12.7 H9.200000000000001 A0.7 0.7 0 0 1 9.9 13.399999999999999 V14.6 A0.7 0.7 0 0 1 9.200000000000001 15.299999999999999 H8 A0.7 0.7 0 0 1 7.3 14.6 V13.399999999999999 A0.7 0.7 0 0 1 8 12.7 Z M14.799999999999999 12.7 H16 A0.7 0.7 0 0 1 16.7 13.399999999999999 V14.6 A0.7 0.7 0 0 1 16 15.299999999999999 H14.799999999999999 A0.7 0.7 0 0 1 14.1 14.6 V13.399999999999999 A0.7 0.7 0 0 1 14.799999999999999 12.7 Z M8 16 H9.200000000000001 A0.7 0.7 0 0 1 9.9 16.7 V17.900000000000002 A0.7 0.7 0 0 1 9.200000000000001 18.6 H8 A0.7 0.7 0 0 1 7.3 17.900000000000002 V16.7 A0.7 0.7 0 0 1 8 16 Z M14.799999999999999 16 H16 A0.7 0.7 0 0 1 16.7 16.7 V17.900000000000002 A0.7 0.7 0 0 1 16 18.6 H14.799999999999999 A0.7 0.7 0 0 1 14.1 17.900000000000002 V16.7 A0.7 0.7 0 0 1 14.799999999999999 16 Z"></path></svg>